# xmcd
#
# Track frame offsets:
#	150
#	12815
#	31040
#	41462
#	48227
#	58805
#	73800
#	89927
#	103517
#	115805
#	130105
#	141220
#
# Disc length: 2079 seconds
#
# Revision: 1
# Processed by: cddbd v1.5.2PL0 Copyright (c) Steve Scherf et al.
# Submitted via: audiograbber 1.83.01
#
DISCID=a3081d0c
DTITLE=Various Artist - Country Holidays
DYEAR=1900
DGENRE=Country
TTITLE0=Chet Atkins - East Tennessee Christmas
TTITLE1=Ed Bruce - Sweet Little Jesus Boy
TTITLE2=Lynn Anderson - Frosty The Snowman
TTITLE3=Willie Nelson - O Little Town of Bethlehem
TTITLE4=Janie Frickie - What Child Is This
TTITLE5=Grandpa Jones - Christmas Roses
TTITLE6=B.J. Thomas - The First Noel
TTITLE7=Henson Cargill - Silver Bells
TTITLE8=Charlie McClain - Wayne Massey - Winter Wonderland
TTITLE9=Larry Gatlin and The Gatlin Brothers Band - Silent Night, Holy Night
TTITLE10=Charlie Rich - God Rest You Merry Gentlemen
TTITLE11=Mickie Gilley - I'll Be Home For Christmas
EXTD=
EXTT0=
EXTT1=
EXTT2=
EXTT3=
EXTT4=
EXTT5=
EXTT6=
EXTT7=
EXTT8=
EXTT9=
EXTT10=
EXTT11=
PLAYORDER=
